#Comment line ignore any data following # character 
#Hierarchical Translation and Rotation (.htr) file 
[Header]	
#Header keywords are followed by a single value 
FileType HTR		#Single word string
DataType HTRS		#Translation followed by rotation and scale data
FileVersion 1		#integer
NumSegments 64		#integer
NumFrames 3		#integer
DataFrameRate 30		#integer, data frame rate in this file
EulerRotationOrder ZYX
CalibrationUnits mm
RotationUnits Degrees
GlobalAxisofGravity Y
BoneLengthAxis Y
ScaleFactor 1.00
[SegmentNames&Hierarchy]
#CHILD	PARENT
Pinger_Root GLOBAL
Pelvis Pinger_Root
L_Hip Pelvis
R_Hip Pelvis
Rear_Leg01 Pelvis
Spine1 Pelvis
L_Leg01 L_Hip
L_Leg02 L_Leg01
L_Leg03 L_Leg02
L_Foot L_Leg03
L_Toe1_01 L_Foot
L_Toe2_01 L_Foot
L_Toe3_01 L_Foot
planeAlignerLeft L_Foot
L_Toe1_02 L_Toe1_01
L_Toe1_03 L_Toe1_02
L_Toe2_02 L_Toe2_01
L_Toe2_03 L_Toe2_02
L_Toe3_02 L_Toe3_01
L_Toe3_03 L_Toe3_02
planeLockWeightLeft planeAlignerLeft
R_Leg01 R_Hip
R_Leg02 R_Leg01
R_Leg03 R_Leg02
R_Foot R_Leg03
planeAlignerRight R_Foot
R_Toe1_01 R_Foot
R_Toe2_01 R_Foot
R_Toe3_01 R_Foot
planeLockWeightRight planeAlignerRight
R_Toe1_02 R_Toe1_01
R_Toe1_03 R_Toe1_02
R_Toe2_02 R_Toe2_01
R_Toe2_03 R_Toe2_02
R_Toe3_02 R_Toe3_01
R_Toe3_03 R_Toe3_02
Rear_Leg02 Rear_Leg01
Rear_Leg03 Rear_Leg02
Rear_Leg04 Rear_Leg03
Rear_Foot Rear_Leg04
planeAlignerCenter Rear_Foot
Rear_Toe1_01 Rear_Foot
Rear_Toe2_01 Rear_Foot
Rear_Toe3_01 Rear_Foot
planeLockWeightCenter planeAlignerCenter
Rear_Toe1_02 Rear_Toe1_01
Rear_Toe1_03 Rear_Toe1_02
Rear_Toe2_02 Rear_Toe2_01
Rear_Toe2_03 Rear_Toe2_02
Rear_Toe3_02 Rear_Toe3_01
Rear_Toe3_03 Rear_Toe3_02
Back_Bone Spine1
Head Spine1
Motor_Bone Back_Bone
Ping_Mechanism Back_Bone
BN_LookIK Head
bottomMouth Head
L_Mouth01 Head
L_mouthFront Head
mouthGun Head
R_Mouth01 Head
R_mouthFront Head
TopMouth Head
weapon_bone Head
[BasePosition]
#SegmentName Tx, Ty, Tz, Rx, Ry, Rz, BoneLength
Pinger_Root 0.000000 0.000000 0.000000 -90.000000 0.000000 0.000000 10.000000 
Pelvis 0.000000 0.000000 0.000000 0.000000 0.000000 0.000000 10.000000 
L_Hip 0.000000 0.000000 0.000000 0.000000 0.000000 0.000000 10.000000 
R_Hip 0.000000 0.000000 0.000000 0.000000 0.000000 0.000000 10.000000 
Rear_Leg01 0.000000 0.000000 0.000000 0.000000 0.000000 0.000000 10.000000 
Spine1 0.000000 0.000000 0.000000 0.000000 0.000000 0.000000 10.000000 
L_Leg01 0.000000 0.000000 0.000000 0.000000 0.000000 0.000000 10.000000 
L_Leg02 0.000000 0.000000 0.000000 0.000000 0.000000 0.000000 10.000000 
L_Leg03 0.000000 0.000000 0.000000 0.000000 0.000000 0.000000 10.000000 
L_Foot 0.000000 0.000000 0.000000 0.000000 0.000000 0.000000 10.000000 
L_Toe1_01 0.000000 0.000000 0.000000 0.000000 0.000000 0.000000 10.000000 
L_Toe2_01 0.000000 0.000000 0.000000 0.000000 0.000000 0.000000 10.000000 
L_Toe3_01 0.000000 0.000000 0.000000 0.000000 0.000000 0.000000 10.000000 
planeAlignerLeft 0.000000 0.000000 0.000000 0.000000 0.000000 0.000000 10.000000 
L_Toe1_02 0.000000 0.000000 0.000000 0.000000 0.000000 0.000000 10.000000 
L_Toe1_03 0.000000 0.000000 0.000000 0.000000 0.000000 0.000000 10.000000 
L_Toe2_02 0.000000 0.000000 0.000000 0.000000 0.000000 0.000000 10.000000 
L_Toe2_03 0.000000 0.000000 0.000000 0.000000 0.000000 0.000000 10.000000 
L_Toe3_02 0.000000 0.000000 0.000000 0.000000 0.000000 0.000000 10.000000 
L_Toe3_03 0.000000 0.000000 0.000000 0.000000 0.000000 0.000000 10.000000 
planeLockWeightLeft 0.000000 0.000000 0.000000 0.000000 0.000000 0.000000 10.000000 
R_Leg01 0.000000 0.000000 0.000000 0.000000 0.000000 0.000000 10.000000 
R_Leg02 0.000000 0.000000 0.000000 0.000000 0.000000 0.000000 10.000000 
R_Leg03 0.000000 0.000000 0.000000 0.000000 0.000000 0.000000 10.000000 
R_Foot 0.000000 0.000000 0.000000 0.000000 0.000000 0.000000 10.000000 
planeAlignerRight 0.000000 0.000000 0.000000 0.000000 0.000000 0.000000 10.000000 
R_Toe1_01 0.000000 0.000000 0.000000 0.000000 0.000000 0.000000 10.000000 
R_Toe2_01 0.000000 0.000000 0.000000 0.000000 0.000000 0.000000 10.000000 
R_Toe3_01 0.000000 0.000000 0.000000 0.000000 0.000000 0.000000 10.000000 
planeLockWeightRight 0.000000 0.000000 0.000000 0.000000 0.000000 0.000000 10.000000 
R_Toe1_02 0.000000 0.000000 0.000000 0.000000 0.000000 0.000000 10.000000 
R_Toe1_03 0.000000 0.000000 0.000000 0.000000 0.000000 0.000000 10.000000 
R_Toe2_02 0.000000 0.000000 0.000000 0.000000 0.000000 0.000000 10.000000 
R_Toe2_03 0.000000 0.000000 0.000000 0.000000 0.000000 0.000000 10.000000 
R_Toe3_02 0.000000 0.000000 0.000000 0.000000 0.000000 0.000000 10.000000 
R_Toe3_03 0.000000 0.000000 0.000000 0.000000 0.000000 0.000000 10.000000 
Rear_Leg02 0.000000 0.000000 0.000000 0.000000 0.000000 0.000000 10.000000 
Rear_Leg03 0.000000 0.000000 0.000000 0.000000 0.000000 0.000000 10.000000 
Rear_Leg04 0.000000 0.000000 0.000000 0.000000 0.000000 0.000000 10.000000 
Rear_Foot 0.000000 0.000000 0.000000 0.000000 0.000000 0.000000 10.000000 
planeAlignerCenter 0.000000 0.000000 0.000000 0.000000 0.000000 0.000000 10.000000 
Rear_Toe1_01 0.000000 0.000000 0.000000 0.000000 0.000000 0.000000 10.000000 
Rear_Toe2_01 0.000000 0.000000 0.000000 0.000000 0.000000 0.000000 10.000000 
Rear_Toe3_01 0.000000 0.000000 0.000000 0.000000 0.000000 0.000000 10.000000 
planeLockWeightCenter 0.000000 0.000000 0.000000 0.000000 0.000000 0.000000 10.000000 
Rear_Toe1_02 0.000000 0.000000 0.000000 0.000000 0.000000 0.000000 10.000000 
Rear_Toe1_03 0.000000 0.000000 0.000000 0.000000 0.000000 0.000000 10.000000 
Rear_Toe2_02 0.000000 0.000000 0.000000 0.000000 0.000000 0.000000 10.000000 
Rear_Toe2_03 0.000000 0.000000 0.000000 0.000000 0.000000 0.000000 10.000000 
Rear_Toe3_02 0.000000 0.000000 0.000000 0.000000 0.000000 0.000000 10.000000 
Rear_Toe3_03 0.000000 0.000000 0.000000 0.000000 0.000000 0.000000 10.000000 
Back_Bone 0.000000 0.000000 0.000000 0.000000 0.000000 0.000000 10.000000 
Head 0.000000 0.000000 0.000000 0.000000 0.000000 0.000000 10.000000 
Motor_Bone 0.000000 0.000000 0.000000 0.000000 0.000000 0.000000 10.000000 
Ping_Mechanism 0.000000 0.000000 0.000000 0.000000 0.000000 0.000000 10.000000 
BN_LookIK 0.000000 0.000000 0.000000 0.000000 0.000000 0.000000 10.000000 
bottomMouth 0.000000 0.000000 0.000000 0.000000 0.000000 0.000000 10.000000 
L_Mouth01 0.000000 0.000000 0.000000 0.000000 0.000000 0.000000 10.000000 
L_mouthFront 0.000000 0.000000 0.000000 0.000000 0.000000 0.000000 10.000000 
mouthGun 0.000000 0.000000 0.000000 0.000000 0.000000 0.000000 10.000000 
R_Mouth01 0.000000 0.000000 0.000000 0.000000 0.000000 0.000000 10.000000 
R_mouthFront 0.000000 0.000000 0.000000 0.000000 0.000000 0.000000 10.000000 
TopMouth 0.000000 0.000000 0.000000 0.000000 0.000000 0.000000 10.000000 
weapon_bone 0.000000 0.000000 0.000000 0.000000 0.000000 0.000000 10.000000 
#Beginning of Data. Separated by tabs
#Fr	Tx	Ty	Tz	Rx	Ry	Rz	SF
[Pinger_Root]
26 0.000000 0.000000 0.000000 -0.000075 -0.000000 -0.000020 0.000000
27 0.000000 0.000000 0.000000 -0.000075 -0.000000 -0.000020 0.000000
28 0.000000 0.000000 0.000000 -0.000075 -0.000000 -0.000020 0.000000
[Pelvis]
26 2.789165 -92.321091 2567.433105 158.738510 -87.824265 -166.077255 2569.093994
27 -0.000010 -104.963333 2561.473633 151.169846 -87.680328 -158.501694 2563.623291
28 -0.000010 -113.267715 2556.409912 151.300339 -87.682350 -158.632217 2558.917969
[L_Hip]
26 5.766392 125.831482 872.656799 -102.183838 -80.890556 9.535980 881.701050
27 5.766392 125.831482 872.656799 -101.949867 -81.158150 9.889587 881.701050
28 5.766392 125.831482 872.656799 -101.949867 -81.158203 9.889584 881.701050
[R_Hip]
26 5.765438 125.836372 -872.654907 -176.915344 69.250862 -95.642792 881.699829
27 5.765438 125.836372 -872.654907 -176.915329 69.250870 -95.642792 881.699829
28 5.765438 125.836372 -872.654907 -176.915344 69.250893 -95.642815 881.699829
[Rear_Leg01]
26 -192.298416 -925.602966 -0.001907 -172.773041 0.498654 -104.105019 945.367432
27 -192.298416 -925.602966 -0.001907 -172.640411 0.371477 -103.413582 945.367432
28 -192.298416 -925.602966 -0.001907 -172.640625 0.370235 -103.411148 945.367432
[Spine1]
26 290.604584 5.007505 0.000477 7.587429 0.106502 28.279358 290.647736
27 290.604584 5.007505 0.000477 7.590314 0.080272 28.819788 290.647736
28 290.604584 5.007505 0.000477 7.590146 0.075553 28.856112 290.647736
[L_Leg01]
26 761.932007 -0.002384 -0.069261 76.894562 -68.120522 -45.494751 761.932068
27 761.932007 -0.002384 -0.069261 75.924271 -69.386536 -44.498814 761.932068
28 761.932007 -0.002384 -0.069261 76.136597 -69.259689 -44.719414 761.932068
[L_Leg02]
26 1441.140503 -0.000954 -0.000715 13.449499 1.378702 -135.873093 1441.140503
27 1441.140503 -0.000954 -0.000715 12.977871 1.199915 -136.474350 1441.140503
28 1441.140503 -0.000954 -0.000715 12.850705 1.203505 -136.089737 1441.140503
[L_Leg03]
26 1686.963989 -0.000715 -0.000954 -0.069944 0.036267 129.512344 1686.963989
27 1686.963989 -0.000715 -0.000954 -0.070118 0.035929 128.959457 1686.963989
28 1686.963989 -0.000715 -0.000954 -0.070072 0.036020 129.107346 1686.963989
[L_Foot]
26 3041.570068 -30.715107 11.297464 -30.719101 30.909796 21.444481 3041.746094
27 3041.570068 -30.715107 11.297464 -30.878836 30.670876 21.418491 3041.746094
28 3041.570068 -30.715107 11.297464 -31.032551 30.697670 21.064600 3041.746094
[L_Toe1_01]
26 -188.216690 -224.732346 -21.137953 73.292557 -5.132069 -172.238464 293.899567
27 -188.216690 -224.732346 -21.137953 73.292702 -5.133395 -172.241257 293.899567
28 -188.216690 -224.732346 -21.137953 73.292839 -5.134719 -172.244034 293.899567
[L_Toe2_01]
26 200.746536 -219.926590 148.838394 -73.094650 -16.150023 -54.213020 332.896027
27 200.746536 -219.926590 148.838394 -73.081314 -16.172346 -54.236080 332.896027
28 200.746536 -219.926590 148.838394 -73.068008 -16.194666 -54.259159 332.896027
[L_Toe3_01]
26 188.832520 -219.859131 -191.078659 -125.359818 45.944626 -59.805710 347.140900
27 188.832520 -219.859131 -191.078659 -125.386002 45.976017 -59.842838 347.140900
28 188.832520 -219.859131 -191.078659 -125.412216 46.007389 -59.879997 347.140900
[planeAlignerLeft]
26 -37.747807 -486.674225 -95.688828 -49.442047 -82.004341 -51.557465 497.426422
27 -38.906555 -486.772736 -95.696869 -49.439404 -82.003479 -51.560192 497.613617
28 -38.863644 -486.758240 -95.688614 -49.436871 -82.002625 -51.562767 497.594482
[L_Toe1_02]
26 413.761139 0.000477 0.000000 0.001397 -24.340639 0.001397 413.761139
27 413.761139 0.000477 0.000000 0.001397 -24.343431 0.001397 413.761139
28 413.761139 0.000477 0.000000 0.001397 -24.346228 0.001397 413.761139
[L_Toe1_03]
26 464.317322 0.000358 -0.000089 0.002645 37.320290 0.002645 464.317322
27 464.317322 0.000358 -0.000089 0.002641 37.234184 0.002641 464.317322
28 464.317322 0.000358 -0.000089 0.002637 37.148067 0.002637 464.317322
[L_Toe2_02]
26 342.235809 -0.000477 0.000238 0.001181 -77.010193 0.001181 342.235809
27 342.235809 -0.000477 0.000238 0.001181 -77.007736 0.001181 342.235809
28 342.235809 -0.000477 0.000238 0.001181 -77.005333 0.001181 342.235809
[L_Toe2_03]
26 420.210846 -0.000715 0.000000 -179.995041 80.199959 -179.991531 420.210846
27 420.210846 -0.000715 0.000000 -179.995056 80.154739 -179.991547 420.210846
28 420.210846 -0.000715 0.000000 -179.995087 80.109444 -179.991577 420.210846
[L_Toe3_02]
26 329.270111 0.000954 0.000000 0.001176 -82.827858 0.001176 329.270111
27 329.270111 0.000954 0.000000 0.001176 -82.849037 0.001176 329.270111
28 329.270111 0.000954 0.000000 0.001176 -82.870132 0.001176 329.270111
[L_Toe3_03]
26 439.137451 -0.001907 0.000954 179.990540 67.039413 179.997665 439.137451
27 439.137451 -0.001907 0.000954 179.990540 67.031654 179.997665 439.137451
28 439.137451 -0.001907 0.000954 179.990540 67.023895 179.997665 439.137451
[planeLockWeightLeft]
26 999.998779 0.098017 0.076013 -0.011826 -0.004376 0.005620 999.998840
27 999.998779 0.098019 0.076012 -0.011826 -0.004376 0.005620 999.998840
28 999.998779 0.098022 0.076012 -0.011826 -0.004376 0.005620 999.998840
[R_Leg01]
26 761.455627 -0.001907 -0.000358 59.804352 -60.192478 84.180481 761.455688
27 761.455627 -0.001907 -0.000358 60.272266 -60.293339 83.709877 761.455688
28 761.455627 -0.001907 -0.000358 60.318733 -60.197533 83.617065 761.455688
[R_Leg02]
26 1441.140625 0.000000 -0.000238 -14.810548 -5.057304 -128.185211 1441.140625
27 1441.140625 0.000000 -0.000238 -15.256433 -5.087707 -127.888542 1441.140625
28 1441.140625 0.000000 -0.000238 -15.239955 -5.068052 -127.393959 1441.140625
[R_Leg03]
26 1686.963989 0.000954 0.001431 0.115980 -0.070953 141.104660 1686.963989
27 1686.963989 0.000954 0.001431 0.109850 -0.067637 140.789810 1686.963989
28 1686.963989 0.000954 0.001431 0.109829 -0.067672 140.826569 1686.963989
[R_Foot]
26 3041.560059 -30.531288 -11.204481 27.315357 -25.691593 20.984194 3041.734131
27 3041.560059 -30.531288 -11.204481 27.034891 -25.568405 20.819647 3041.734131
28 3041.560059 -30.531288 -11.204481 27.150129 -25.653839 20.427570 3041.734131
[planeAlignerRight]
26 -223.659409 -564.158752 -77.220245 -171.931488 -81.500130 69.332443 611.769226
27 -223.779175 -564.200867 -76.835754 -172.074448 -81.466087 69.476524 611.803467
28 -223.898911 -564.243042 -76.451263 -172.216263 -81.431870 69.619392 611.838013
[R_Toe1_01]
26 -188.383347 -224.864899 21.052242 102.350143 -2.580112 -171.735153 294.101532
27 -188.383347 -224.864899 21.052242 102.390427 -2.588587 -171.723953 294.101532
28 -188.383347 -224.864899 21.052242 102.430733 -2.597071 -171.712753 294.101532
[R_Toe2_01]
26 200.637817 -220.002121 -148.787384 -125.825569 12.752029 -63.940830 332.857574
27 200.637817 -220.002121 -148.787384 -125.825050 12.750063 -63.936119 332.857574
28 200.637817 -220.002121 -148.787384 -125.824532 12.748097 -63.931396 332.857574
[R_Toe3_01]
26 188.606735 -220.092957 191.126343 -66.884041 -38.477440 -60.950115 347.192566
27 188.606735 -220.092957 191.126343 -66.885399 -38.488998 -60.947159 347.192566
28 188.606735 -220.092957 191.126343 -66.886742 -38.500546 -60.944202 347.192566
[planeLockWeightRight]
26 999.999329 0.000000 0.076012 -0.011823 -0.004379 -0.000027 999.999329
27 999.999329 0.000000 0.076012 -0.011823 -0.004379 -0.000027 999.999329
28 999.999329 0.000000 0.076012 -0.011823 -0.004379 -0.000027 999.999329
[R_Toe1_02]
26 413.762085 0.000477 -0.000119 0.001386 -25.657745 0.001386 413.762085
27 413.762085 0.000477 -0.000119 0.001386 -25.661749 0.001386 413.762085
28 413.762085 0.000477 -0.000119 0.001386 -25.665756 0.001386 413.762085
[R_Toe1_03]
26 464.317810 0.000000 0.001088 0.003138 46.077106 0.003138 464.317810
27 464.317810 0.000000 0.001088 0.003134 46.016617 0.003134 464.317810
28 464.317810 0.000000 0.001088 0.003134 46.020771 0.003134 464.317810
[R_Toe2_02]
26 342.234741 -0.000954 0.000238 -0.002342 -75.448166 -0.002342 342.234741
27 342.234741 -0.000954 0.000238 -0.002342 -75.446297 -0.002342 342.234741
28 342.234741 -0.000954 0.000238 -0.002342 -75.444481 -0.002342 342.234741
[R_Toe2_03]
26 420.210846 0.000715 -0.000268 -179.983963 85.391258 -179.987457 420.210846
27 420.210846 0.000715 -0.000268 -179.983963 85.393425 -179.987457 420.210846
28 420.210846 0.000715 -0.000268 -179.983948 85.395721 -179.987442 420.210846
[R_Toe3_02]
26 329.270355 -0.000477 -0.000954 0.001176 -82.663216 0.001176 329.270355
27 329.270355 -0.000477 -0.000954 0.001176 -82.662514 0.001176 329.270355
28 329.270355 -0.000477 -0.000954 0.001176 -82.661850 0.001176 329.270355
[R_Toe3_03]
26 439.137939 0.000238 0.001431 -179.998795 67.845963 -179.995224 439.137939
27 439.137939 0.000238 0.001431 -179.998795 67.838043 -179.995224 439.137939
28 439.137939 0.000238 0.001431 -179.998795 67.830078 -179.995224 439.137939
[Rear_Leg02]
26 1162.777710 -0.029802 0.005960 6.304709 -2.185978 -106.941750 1162.777710
27 1162.777710 -0.029802 0.005960 6.445631 -1.995641 -107.195580 1162.777710
28 1162.777710 -0.029802 0.005960 6.460207 -1.941501 -107.601410 1162.777710
[Rear_Leg03]
26 607.192505 -0.013351 -0.073195 0.010412 -0.005267 70.015495 607.192505
27 607.192505 -0.013351 -0.073195 0.010406 -0.005279 70.154633 607.192505
28 607.192505 -0.013351 -0.073195 0.010400 -0.005292 70.293739 607.192505
[Rear_Leg04]
26 995.874512 -0.020504 -0.011921 -0.040699 -0.017679 70.402405 995.874573
27 995.874512 -0.020504 -0.011921 -0.040766 -0.017525 70.836334 995.874573
28 995.874512 -0.020504 -0.011921 -0.040832 -0.017371 71.270248 995.874573
[Rear_Foot]
26 3096.176270 -0.067472 -0.041425 -21.850603 81.892494 -172.134583 3096.176270
27 3096.176270 -0.067472 -0.041425 -21.093231 81.710892 -171.464462 3096.176270
28 3096.176270 -0.067472 -0.041425 -21.091362 81.710472 -171.474426 3096.176270
[planeAlignerCenter]
26 -8.680344 -177.840652 -664.441528 12.240769 -0.001473 179.998184 687.884583
27 -8.680382 -178.025925 -664.421509 12.240771 -0.001473 179.998184 687.913147
28 -8.680420 -178.211212 -664.401550 12.240769 -0.001473 179.998184 687.941833
[Rear_Toe1_01]
26 0.653352 83.966492 -371.173737 0.686278 30.806374 91.055000 380.553192
27 0.653352 83.966492 -371.173737 0.687217 30.807333 91.055840 380.553192
28 0.653352 83.966492 -371.173737 0.688150 30.808302 91.056664 380.553192
[Rear_Toe2_01]
26 178.200760 -294.826019 -362.060547 -8.036812 29.300446 -68.054390 499.765686
27 178.200760 -294.826019 -362.060547 -8.037358 29.297468 -68.061356 499.765686
28 178.200760 -294.826019 -362.060547 -8.037906 29.294483 -68.068306 499.765686
[Rear_Toe3_01]
26 -153.359680 -308.780914 -362.060852 3.654195 28.082111 -111.964180 499.952881
27 -153.359680 -308.780914 -362.060852 3.654430 28.078087 -111.961266 499.952881
28 -153.359680 -308.780914 -362.060852 3.654664 28.074057 -111.958359 499.952881
[planeLockWeightCenter]
26 1000.000000 0.000249 0.076254 -0.011814 -0.004373 -0.000015 1000.000000
27 1000.000000 0.000247 0.076254 -0.011814 -0.004373 -0.000015 1000.000000
28 1000.000000 0.000245 0.076254 -0.011814 -0.004373 -0.000015 1000.000000
[Rear_Toe1_02]
26 379.707825 0.194073 0.000477 -0.002651 -32.417511 -0.002651 379.707855
27 379.707825 0.194073 0.000477 -0.002651 -32.417316 -0.002651 379.707855
28 379.707825 0.194073 0.000477 -0.002651 -32.417118 -0.002651 379.707855
[Rear_Toe1_03]
26 500.129700 0.165701 0.000119 -179.978043 86.741417 -179.981537 500.129761
27 500.129700 0.165701 0.000119 -179.978210 86.713776 -179.981705 500.129761
28 500.129700 0.165701 0.000119 -179.978378 86.685837 -179.981873 500.129761
[Rear_Toe2_02]
26 340.494507 0.000238 -0.000954 0.001198 -66.906853 0.001198 340.494507
27 340.494507 0.000238 -0.000954 0.001198 -66.883163 0.001198 340.494507
28 340.494507 0.000238 -0.000954 0.001198 -66.859482 0.001198 340.494507
[Rear_Toe2_03]
26 433.103577 0.000000 0.000238 0.005518 65.438087 0.005518 433.103546
27 433.103577 0.000000 0.000238 0.005509 65.398453 0.005509 433.103546
28 433.103577 0.000000 0.000238 0.005500 65.358803 0.005500 433.103546
[Rear_Toe3_02]
26 340.494141 -0.000358 -0.000477 -0.002392 -62.395638 -0.002392 340.494171
27 340.494141 -0.000358 -0.000477 -0.002392 -62.368275 -0.002392 340.494171
28 340.494141 -0.000358 -0.000477 -0.002392 -62.340912 -0.002392 340.494171
[Rear_Toe3_03]
26 433.103577 0.001431 -0.000238 -0.000355 59.250641 -0.003981 433.103546
27 433.103577 0.001431 -0.000238 -0.000351 59.205677 -0.003978 433.103546
28 433.103577 0.001431 -0.000238 -0.000348 59.160721 -0.003975 433.103546
[Back_Bone]
26 1312.175781 -701.934692 0.000954 1.458241 -0.145759 -80.315308 1488.125488
27 1312.175781 -701.934692 0.000954 1.470493 -0.125483 -80.606705 1488.125488
28 1312.175781 -701.934692 0.000954 1.470453 -0.125961 -80.569481 1488.125488
[Head]
26 1406.159424 809.709290 0.001431 -2.239207 2.436156 -0.224075 1622.625488
27 1406.159424 809.709290 0.001431 -2.168062 2.424172 -0.603304 1622.625488
28 1406.159424 809.709290 0.001431 -2.168062 2.424172 -0.603304 1622.625488
[Motor_Bone]
26 1158.364380 -417.834747 0.000477 -0.274789 -0.237591 -126.790276 1231.419434
27 1158.364380 -417.834747 0.000477 -0.254228 -0.255969 -126.593925 1231.419434
28 1158.364380 -417.834747 0.000477 -0.205672 -0.271802 -126.103027 1231.419434
[Ping_Mechanism]
26 1213.233032 -431.524628 -10.086647 0.000103 -0.000053 82.120995 1287.730347
27 1211.895142 -430.517517 -10.307360 0.000103 -0.000053 82.120995 1286.134277
28 1213.060303 -422.123596 -10.307476 0.000103 -0.000053 82.120995 1284.449219
[BN_LookIK]
26 193.241119 1380.371704 -0.002861 0.000000 89.965736 -31.038179 1393.832153
27 193.241119 1380.371704 -0.002861 0.000000 89.965736 -31.038179 1393.832153
28 193.241119 1380.371704 -0.002861 0.000000 89.965736 -31.038179 1393.832153
[bottomMouth]
26 -435.092926 615.759399 -0.000954 -0.000022 0.000016 73.527184 753.966492
27 -435.092926 615.759399 -0.000954 -0.000022 0.000016 73.527184 753.966492
28 -435.092926 615.759399 -0.000954 -0.000022 0.000016 73.527184 753.966492
[L_Mouth01]
26 554.440979 7.658243 838.222046 150.204178 23.759130 109.605339 1005.027161
27 554.440979 7.658243 838.222046 150.204178 23.759130 109.605339 1005.027161
28 554.440979 7.658243 838.222046 150.204178 23.759130 109.605339 1005.027161
[L_mouthFront]
26 551.629089 934.514771 339.150421 0.000081 2.804060 79.119301 1136.941284
27 551.629089 934.514771 339.150421 0.000081 2.804060 79.119301 1136.941284
28 551.629089 934.514771 339.150421 0.000081 2.804060 79.119301 1136.941284
[mouthGun]
26 55.332661 1627.420898 0.000000 0.000023 0.000009 -11.038128 1628.361328
27 55.332661 1627.420898 0.000000 0.000023 0.000009 -11.038128 1628.361328
28 55.332661 1627.420898 0.000000 0.000023 0.000009 -11.038128 1628.361328
[R_Mouth01]
26 554.442383 7.659197 -838.223938 29.795891 -23.759109 109.605331 1005.029541
27 554.442383 7.659197 -838.223938 29.795891 -23.759109 109.605331 1005.029541
28 554.442383 7.659197 -838.223938 29.795891 -23.759109 109.605331 1005.029541
[R_mouthFront]
26 551.629089 934.514282 -339.151367 0.000029 -2.803930 79.119133 1136.941162
27 551.629089 934.514282 -339.151367 0.000029 -2.803930 79.119133 1136.941162
28 551.629089 934.514282 -339.151367 0.000029 -2.803930 79.119133 1136.941162
[TopMouth]
26 461.269867 -56.106091 -0.008583 -0.000059 -0.000268 92.025169 464.669525
27 461.269867 -56.106091 -0.008583 -0.000059 -0.000268 92.025169 464.669525
28 461.269867 -56.106091 -0.008583 -0.000059 -0.000268 92.025169 464.669525
[weapon_bone]
26 -987.239868 1448.372803 0.001431 0.000000 89.965736 -31.038221 1752.833740
27 -987.239868 1448.372803 0.001431 0.000000 89.965736 -31.038221 1752.833740
28 -987.239868 1448.372803 0.001431 0.000000 89.965736 -31.038221 1752.833740
